<svg xmlns="http://www.w3.org/2000/svg" viewBox="0 0 115.4 101.89"><defs><style>.cls-1{isolation:isolate;}.cls-2{font-size:20px;fill:#383838;font-family:IBMPlexSans-Bold, IBM Plex Sans;font-weight:700;}.cls-3{font-size:18px;letter-spacing:0em;}.cls-15,.cls-4{fill:#414042;}.cls-5{fill:#d1d3d4;}.cls-6{fill:#22363f;}.cls-11,.cls-7{fill:#4e7387;}.cls-7{stroke:#578ca3;stroke-miterlimit:10;stroke-width:5px;}.cls-8{fill:#204856;}.cls-9{fill:#092830;}.cls-10{fill:#fff;opacity:0.6;}.cls-12{fill:#be1e2d;}.cls-13,.cls-14{fill:#939598;}.cls-14{opacity:0.3;mix-blend-mode:multiply;}.cls-15{font-size:14px;font-family:IBMPlexSans, IBM Plex Sans;letter-spacing:0.1em;}.cls-16{letter-spacing:0.08em;}</style></defs><title>logophotography</title><g class="cls-1"><g id="Layer_1" data-name="Layer 1"><text class="cls-2" transform="translate(9.88 84.54)">KEPEDEH<tspan class="cls-3" x="91.88" y="0"> </tspan></text><rect class="cls-4" x="9.88" y="8.93" width="91.74" height="53.01"/><path class="cls-5" d="M172.74,118.68a23,23,0,1,1-23-23A22.95,22.95,0,0,1,172.74,118.68Z" transform="translate(-83.49 -83.24)"/><rect class="cls-5" x="9.88" y="8.93" width="91.74" height="10.04"/><rect class="cls-5" x="9.88" y="51.9" width="91.74" height="10.04"/><path class="cls-6" d="M169.35,118.68a19.56,19.56,0,1,1-19.56-19.56A19.56,19.56,0,0,1,169.35,118.68Z" transform="translate(-83.49 -83.24)"/><path class="cls-7" d="M163.92,118.68a14.13,14.13,0,1,1-14.13-14.13A14.13,14.13,0,0,1,163.92,118.68Z" transform="translate(-83.49 -83.24)"/><path class="cls-8" d="M157.47,118.68a7.68,7.68,0,1,1-7.68-7.68A7.68,7.68,0,0,1,157.47,118.68Z" transform="translate(-83.49 -83.24)"/><path class="cls-9" d="M154.64,118.68a4.85,4.85,0,1,1-4.85-4.85A4.85,4.85,0,0,1,154.64,118.68Z" transform="translate(-83.49 -83.24)"/><path class="cls-5" d="M167.22,96.66a1.73,1.73,0,0,1-1.77,1.69H135.16a1.73,1.73,0,0,1-1.76-1.69V84.94a1.73,1.73,0,0,1,1.76-1.7h30.29a1.73,1.73,0,0,1,1.77,1.7Z" transform="translate(-83.49 -83.24)"/><path class="cls-10" d="M145.6,109.64a4.77,4.77,0,1,1-4.77-4.77A4.78,4.78,0,0,1,145.6,109.64Z" transform="translate(-83.49 -83.24)"/><path class="cls-10" d="M146.88,115.61a1.52,1.52,0,1,1-1.52-1.52A1.52,1.52,0,0,1,146.88,115.61Z" transform="translate(-83.49 -83.24)"/><rect class="cls-11" x="63.38" y="1.67" width="17.64" height="8.48" rx="1.7"/><rect class="cls-6" x="53.98" y="2.35" width="6.37" height="4.3" rx="1.7"/><path class="cls-12" d="M143.3,92.29a1.19,1.19,0,1,1-1.19-1.19A1.18,1.18,0,0,1,143.3,92.29Z" transform="translate(-83.49 -83.24)"/><rect class="cls-13" x="17.86" y="5.91" width="11.28" height="3.02"/><rect class="cls-14" x="94.23" y="8.93" width="7.39" height="52.96"/><rect class="cls-14" x="9.88" y="8.93" width="3.69" height="52.96"/><text class="cls-15" transform="translate(0 98.46)">PH<tspan class="cls-16" x="21.18" y="0">OT</tspan><tspan x="41.34" y="0">OGRAPHY</tspan></text></g></g></svg>